<svg width="324" height="120" viewBox="0 0 324 120" fill="none" xmlns="http://www.w3.org/2000/svg">
<path d="M22.2107 57.3774C24.85 57.3774 27.2127 57.9308 29.2986 59.0376C31.4271 60.1445 33.0873 61.8473 34.2793 64.146C35.5138 66.4022 36.1311 69.1693 36.1311 72.4472V92.8808H31.7251V72.958C31.7251 69.1693 30.7673 66.2745 28.8516 64.2737C26.9785 62.273 24.4031 61.2726 21.1252 61.2726C17.7621 61.2726 15.0802 62.3368 13.0794 64.4653C11.0786 66.5938 10.0783 69.7227 10.0783 73.852V92.8808H5.6084V45.6281H10.0783V63.9545C11.1851 61.8685 12.8027 60.2509 14.9312 59.1015C17.1023 57.9521 19.5288 57.3774 22.2107 57.3774Z" fill="#818282"/>
<path d="M77.561 73.6604C77.561 75.193 77.5185 76.3636 77.4333 77.1725H48.507C48.6347 79.8118 49.2733 82.068 50.4227 83.9411C51.572 85.8142 53.0833 87.2403 54.9564 88.2194C56.8294 89.1559 58.8728 89.6242 61.0864 89.6242C63.9812 89.6242 66.4077 88.9218 68.3659 87.517C70.3667 86.1122 71.6864 84.2178 72.3249 81.8339H77.0502C76.1988 85.2395 74.3683 88.0278 71.5587 90.1989C68.7916 92.3274 65.3009 93.3916 61.0864 93.3916C57.8086 93.3916 54.8712 92.6679 52.2745 91.2206C49.6777 89.7306 47.6343 87.6447 46.1444 84.9628C44.697 82.2383 43.9733 79.0668 43.9733 75.4484C43.9733 71.8299 44.697 68.6585 46.1444 65.934C47.5917 63.2095 49.6138 61.1236 52.2106 59.6762C54.8074 58.2288 57.766 57.5051 61.0864 57.5051C64.4069 57.5051 67.3017 58.2288 69.7707 59.6762C72.2824 61.1236 74.198 63.0818 75.5177 65.5508C76.8799 67.9773 77.561 70.6805 77.561 73.6604ZM73.0273 73.5327C73.0699 70.936 72.5378 68.7223 71.431 66.8918C70.3667 65.0613 68.898 63.6778 67.025 62.7412C65.1519 61.8047 63.1085 61.3364 60.8949 61.3364C57.5744 61.3364 54.7435 62.4007 52.4022 64.5292C50.0608 66.6577 48.7624 69.6589 48.507 73.5327H73.0273Z" fill="#818282"/>
<path d="M83.6956 75.3845C83.6956 71.8086 84.398 68.6797 85.8028 65.9978C87.2502 63.2733 89.2297 61.1874 91.7413 59.74C94.2955 58.2501 97.169 57.5051 100.362 57.5051C103.682 57.5051 106.534 58.2714 108.918 59.8039C111.345 61.3364 113.09 63.2946 114.154 65.6786V58.016H118.624V92.8808H114.154V85.1543C113.048 87.5383 111.281 89.5178 108.854 91.0929C106.471 92.6254 103.618 93.3916 100.298 93.3916C97.1477 93.3916 94.2955 92.6467 91.7413 91.1567C89.2297 89.6668 87.2502 87.5595 85.8028 84.8351C84.398 82.1106 83.6956 78.9604 83.6956 75.3845ZM114.154 75.4484C114.154 72.6388 113.58 70.1697 112.43 68.0412C111.281 65.9127 109.706 64.2737 107.705 63.1244C105.747 61.975 103.576 61.4003 101.192 61.4003C98.7228 61.4003 96.5092 61.9537 94.551 63.0605C92.5927 64.1673 91.0389 65.785 89.8896 67.9135C88.7827 69.9994 88.2293 72.4898 88.2293 75.3845C88.2293 78.2367 88.7827 80.7483 89.8896 82.9194C91.0389 85.0479 92.5927 86.6869 94.551 87.8363C96.5092 88.9431 98.7228 89.4965 101.192 89.4965C103.576 89.4965 105.747 88.9218 107.705 87.7724C109.706 86.623 111.281 84.9841 112.43 82.8556C113.58 80.7271 114.154 78.258 114.154 75.4484Z" fill="#818282"/>
<path d="M133.298 45.6281V92.8808H128.829V45.6281H133.298Z" fill="#818282"/>
<path d="M149.231 61.7834V83.4303C149.231 85.5588 149.636 87.0274 150.445 87.8363C151.253 88.6451 152.679 89.0495 154.723 89.0495H158.81V92.8808H154.02C150.87 92.8808 148.529 92.1571 146.996 90.7097C145.464 89.2198 144.698 86.7933 144.698 83.4303V61.7834H139.845V58.016H144.698V49.2678H149.231V58.016H158.81V61.7834H149.231Z" fill="#818282"/>
<path d="M182.784 57.3774C185.423 57.3774 187.786 57.9308 189.872 59.0376C192 60.1445 193.66 61.8473 194.852 64.146C196.087 66.4022 196.704 69.1693 196.704 72.4472V92.8808H192.298V72.958C192.298 69.1693 191.34 66.2745 189.425 64.2737C187.551 62.273 184.976 61.2726 181.698 61.2726C178.335 61.2726 175.653 62.3368 173.652 64.4653C171.652 66.5938 170.651 69.7227 170.651 73.852V92.8808H166.181V45.6281H170.651V63.9545C171.758 61.8685 173.376 60.2509 175.504 59.1015C177.675 57.9521 180.102 57.3774 182.784 57.3774Z" fill="#818282"/>
<path d="M208.825 51.4389C207.931 51.4389 207.164 51.1196 206.526 50.4811C205.887 49.8425 205.568 49.055 205.568 48.1184C205.568 47.1819 205.887 46.4156 206.526 45.8196C207.164 45.1811 207.931 44.8618 208.825 44.8618C209.718 44.8618 210.485 45.1811 211.123 45.8196C211.762 46.4156 212.081 47.1819 212.081 48.1184C212.081 49.055 211.762 49.8425 211.123 50.4811C210.485 51.1196 209.718 51.4389 208.825 51.4389ZM211.059 58.016V92.8808H206.59V58.016H211.059Z" fill="#818282"/>
<path d="M267.507 88C267.507 92.4183 263.924 96 259.505 96C255.086 96 251.503 92.4183 251.503 88L251.503 80L267.507 64L275.508 64C279.928 64 283.51 67.5817 283.51 72C283.51 76.4183 279.928 80 275.508 80L267.507 80L267.507 88Z" fill="#F8D97E"/>
<path d="M251.504 55.999C251.504 51.5807 255.086 47.999 259.505 47.999C263.925 47.999 267.507 51.5808 267.507 55.999L267.507 63.999L251.504 79.999L243.502 79.999C239.082 79.999 235.5 76.4173 235.5 71.999C235.5 67.5807 239.082 63.999 243.502 63.999L251.504 63.999L251.504 55.999Z" fill="#E9A175"/>
<path d="M291.513 79.8823C291.513 75.464 295.095 71.8823 299.515 71.8823C303.934 71.8823 307.516 75.4641 307.516 79.8823L307.516 87.8823L291.513 103.882L283.511 103.882C279.092 103.882 275.509 100.301 275.509 95.8823C275.509 91.464 279.092 87.8823 283.511 87.8823L291.513 87.8823L291.513 79.8823Z" fill="#AD90BF"/>
<path d="M307.515 111.882C307.515 116.3 303.933 119.882 299.514 119.882C295.094 119.882 291.512 116.3 291.512 111.882L291.512 103.882L307.515 87.8818L315.517 87.8818C319.937 87.8818 323.519 91.4636 323.519 95.8818C323.519 100.3 319.937 103.882 315.517 103.882L307.515 103.882L307.515 111.882Z" fill="#E89EBA"/>
<path d="M283.511 7.99951C283.511 3.58123 287.093 -0.000488281 291.513 -0.000488281C295.932 -0.000488281 299.514 3.58123 299.514 7.99951V15.9995L283.511 31.9995H275.509C271.09 31.9995 267.507 28.4178 267.507 23.9995C267.507 19.5812 271.09 15.9995 275.509 15.9995H283.511V7.99951Z" fill="#C2DA80"/>
<path d="M299.514 39.999C299.514 44.4173 295.932 47.999 291.512 47.999C287.093 47.999 283.51 44.4173 283.51 39.999L283.51 31.999L299.514 15.999L307.516 15.999C311.935 15.999 315.518 19.5808 315.518 23.999C315.518 28.4173 311.935 31.999 307.516 31.999L299.514 31.999L299.514 39.999Z" fill="#ABD7E9"/>
</svg>
